<?xml version="1.0" encoding="UTF-8"?>
<svg version="1.1" xmlns="http://www.w3.org/2000/svg" width="512" height="512">
<path d="M0 0 C168.96 0 337.92 0 512 0 C512 168.96 512 337.92 512 512 C343.04 512 174.08 512 0 512 C0 343.04 0 174.08 0 0 Z " fill="#A9DCFF" transform="translate(0,0)"/>
<path d="M0 0 C3.57444089 6.51698854 3.41523571 12.49360806 3.3125 19.8125 C3.31733398 21.47055664 3.31733398 21.47055664 3.32226562 23.16210938 C3.21200308 40.71390179 0.17596208 57.98058691 -2.6875 75.25 C-2.95119385 76.8543692 -2.95119385 76.8543692 -3.22021484 78.4911499 C-5.63126044 93.15553579 -8.18794519 107.78568204 -10.92486572 122.39248657 C-18.631544 163.5360624 -25.94743042 204.94699945 -30.71630859 246.54785156 C-30.98190011 248.8435497 -31.26375574 251.13658638 -31.55078125 253.4296875 C-33.58717113 270.09036654 -34.77568582 286.91660499 -35.2421875 303.69140625 C-35.27691162 304.91931885 -35.31163574 306.14723145 -35.34741211 307.41235352 C-35.40617159 309.75238214 -35.45187569 312.09278587 -35.48266602 314.43334961 C-35.50772217 315.48659424 -35.53277832 316.53983887 -35.55859375 317.625 C-35.57204834 318.54539062 -35.58550293 319.46578125 -35.59936523 320.4140625 C-36.08433063 323.54432052 -37.1670439 325.43523859 -39 328 C-46.9079397 333.67749517 -57.93892353 333.04580102 -67.24511719 331.66748047 C-78.76858099 329.44469342 -88.18547954 326.00293886 -95.0625 316 C-100.91674864 304.89910277 -101.62977785 293.9113832 -101.4375 281.6875 C-101.43134674 280.8986441 -101.42519348 280.10978821 -101.41885376 279.29702759 C-101.31842342 266.64168712 -100.3868572 254.28842166 -98.41894531 241.77685547 C-97.98472567 238.89875859 -97.6198277 236.01883111 -97.2734375 233.12890625 C-95.60932895 219.27775086 -93.44218409 205.53309942 -90 192 C-90.5762915 192.00523682 -91.15258301 192.01047363 -91.74633789 192.01586914 C-102.25974682 192.09775412 -112.74788635 192.09226844 -123.25 191.5625 C-135.14023609 190.96286403 -147.03610027 190.70311511 -158.9375 190.4375 C-160.42219788 190.40428146 -160.42219788 190.40428146 -161.93688965 190.37039185 C-167.62452799 190.24379922 -173.31223062 190.12055451 -179 190 C-179.14856445 191.24765137 -179.29712891 192.49530273 -179.45019531 193.78076172 C-179.91229847 197.66152607 -180.75305703 201.34151973 -181.75 205.125 C-190.1009304 237.58574945 -197.5322007 271.22983774 -197.49682617 304.89550781 C-197.59136017 312.71300047 -199.27391259 318.77173859 -204.375 324.8125 C-216.56124251 334.96770209 -231.29213134 336.04008043 -246.625 336.375 C-247.89601562 336.40335937 -249.16703125 336.43171875 -250.4765625 336.4609375 C-254.65344788 335.91451569 -256.76249755 334.65103294 -260 332 C-278.02190253 300.92775426 -259.75683629 242.47586766 -251.72460938 209.97509766 C-250.75541375 205.99577895 -249.86948286 202.00217845 -249 198 C-249.83470825 198.13631836 -249.83470825 198.13631836 -250.6862793 198.27539062 C-264.56650235 200.48918758 -277.95242256 201.38781655 -292 201 C-293.55307507 197.89384986 -293.70428939 195.33642176 -293 192 C-284.56649887 173.96318952 -265.80312261 164.64168937 -248 158 C-245.33301963 157.32890846 -242.69871893 156.69120896 -239.98828125 156.2265625 C-235.41847895 153.40747031 -234.14095912 144.44149781 -232.6171875 139.44140625 C-232.17277581 138.00160673 -231.72801928 136.56191361 -231.28295898 135.12231445 C-231.05357635 134.37841461 -230.82419373 133.63451477 -230.58786011 132.86807251 C-223.22965186 109.06973889 -214.82673056 85.900151 -205 63 C-234.5565495 65.11959319 -259.92108605 68.88467051 -283 89 C-284.44334364 90.20567471 -285.90030719 91.39537813 -287.375 92.5625 C-288.25285156 93.27599609 -288.25285156 93.27599609 -289.1484375 94.00390625 C-291.58798708 95.31632216 -293.26963162 95.31470155 -296 95 C-301.64985194 89.68249229 -303.18284094 83.08914483 -303.4375 75.625 C-303.15912287 64.18502566 -297.62918244 55.27173834 -290 47 C-255.16931588 18.04077406 -199.75603148 13.27395578 -156.1875 12.625 C-155.21619141 12.58761719 -154.24488281 12.55023438 -153.24414062 12.51171875 C-145.35101571 12.41565638 -140.68186824 14.47063518 -135.01953125 19.8984375 C-131.09069034 27.99696781 -134.12121918 40.48357972 -136.91796875 48.6953125 C-139.45833418 55.37228831 -139.45833418 55.37228831 -141.5 57.73828125 C-143.75251844 61.13465671 -144.26697432 64.87737779 -145.0625 68.8125 C-147.23173605 78.86355413 -149.64347696 88.84260025 -152.17697144 98.80697632 C-152.59036237 100.43673904 -153.00078199 102.06725931 -153.40774536 103.69863892 C-156.97962128 118.00379478 -161.39421674 131.99662112 -166 146 C-165.14381577 145.99777939 -164.28763153 145.99555878 -163.40550232 145.99327087 C-155.27214888 145.97309771 -147.13880404 145.95794002 -139.00543118 145.94818783 C-134.82563127 145.94300535 -130.64585231 145.93599368 -126.46606445 145.92456055 C-122.42006797 145.9135647 -118.37409143 145.90768843 -114.32808113 145.90512276 C-112.79700469 145.90329819 -111.26592914 145.89973667 -109.73486137 145.89426994 C-99.77505174 145.86017546 -89.93079353 146.20324863 -80 147 C-79.67128906 145.41638672 -79.67128906 145.41638672 -79.3359375 143.80078125 C-76.76730541 131.69310163 -73.5454962 119.85477328 -70 108 C-69.67902344 106.91283691 -69.35804688 105.82567383 -69.02734375 104.70556641 C-50.18624513 41.11685857 -50.18624513 41.11685857 -33 22 C-32.29101562 21.17371094 -31.58203125 20.34742187 -30.8515625 19.49609375 C-12.64990607 -1.34573469 -12.64990607 -1.34573469 0 0 Z " fill="#0088FF" transform="translate(406,88)"/>
<path d="M0 0 C0.33 0 0.66 0 1 0 C1 13.53 1 27.06 1 41 C-12.53 41 -26.06 41 -40 41 C-36.77794772 39.38897386 -33.66489916 38.09649079 -30.3125 36.8125 C-17.71232801 31.5611525 -8.22889841 22.19948407 -2.96484375 9.59765625 C-1.78548854 6.42246916 -0.80417774 3.28981803 0 0 Z " fill="#000000" transform="translate(511,471)"/>
<path d="M0 0 C1.61102614 3.22205228 2.90350921 6.33510084 4.1875 9.6875 C9.4388475 22.28767199 18.80051593 31.77110159 31.40234375 37.03515625 C34.57753084 38.21451146 37.71018197 39.19582226 41 40 C41 40.33 41 40.66 41 41 C27.47 41 13.94 41 0 41 C0 27.47 0 13.94 0 0 Z " fill="#000000" transform="translate(0,471)"/>
<path d="M0 0 C13.53 0 27.06 0 41 0 C41 13.53 41 27.06 41 41 C39.38897386 37.77794772 38.09649079 34.66489916 36.8125 31.3125 C31.5611525 18.71232801 22.19948407 9.22889841 9.59765625 3.96484375 C6.42246916 2.78548854 3.28981803 1.80417774 0 1 C0 0.67 0 0.34 0 0 Z " fill="#000000" transform="translate(471,0)"/>
<path d="M0 0 C13.53 0 27.06 0 41 0 C37.77794772 1.61102614 34.66489916 2.90350921 31.3125 4.1875 C18.71232801 9.4388475 9.22889841 18.80051593 3.96484375 31.40234375 C2.78548854 34.57753084 1.80417774 37.71018197 1 41 C0.67 41 0.34 41 0 41 C0 27.47 0 13.94 0 0 Z " fill="#000000" transform="translate(0,0)"/>
</svg>
